<svg width="131" height="18" viewBox="0 0 131 18" fill="none" xmlns="http://www.w3.org/2000/svg">
<path d="M125.207 17.8828C121.996 17.8828 119.687 16.3477 119.476 13.6875H122.875C123.004 14.7656 123.801 15.4102 125.148 15.4102C126.426 15.4102 127.211 14.8711 127.211 14.1094C127.211 13.4531 126.613 13.0664 125.605 12.8672L123.437 12.4453C121.035 11.9766 119.758 10.7578 119.758 8.83594C119.758 6.49219 121.785 4.94531 125.008 4.94531C128.207 4.94531 130.316 6.55078 130.387 9.12891H127.187C127.164 8.13281 126.32 7.39453 125.101 7.39453C123.918 7.39453 123.203 7.96875 123.203 8.70703C123.203 9.33984 123.754 9.75 124.703 9.94922L127.047 10.4062C129.543 10.8984 130.691 11.9766 130.691 13.793C130.691 16.2656 128.441 17.8828 125.207 17.8828Z" fill="#8D8D8D"/>
<path d="M112.549 17.5781V5.20312H115.877V7.3125H115.912C116.37 5.82422 117.307 5.12109 118.936 5.12109C119.334 5.12109 119.674 5.13281 119.955 5.14453V8.08594C119.698 8.07422 119.053 8.02734 118.467 8.02734C117.049 8.02734 116.006 9.01172 116.006 10.875V17.5781H112.549Z" fill="#8D8D8D"/>
<path d="M106.161 17.8594C102.411 17.8594 99.9736 15.1641 99.9736 11.4023C99.9736 7.62891 102.493 4.92188 106.044 4.92188C109.688 4.92188 112.138 7.55859 112.138 11.332V12.2578H103.337C103.396 14.0859 104.45 15.2695 106.267 15.2695C107.614 15.2695 108.54 14.6484 108.856 13.6875H112.009C111.552 16.1484 109.161 17.8594 106.161 17.8594ZM103.36 10.0547H108.88C108.704 8.50781 107.673 7.54688 106.114 7.54688C104.567 7.54688 103.548 8.50781 103.36 10.0547Z" fill="#8D8D8D"/>
<path d="M91.3472 10.6992V17.5781H87.8901V5.20312H91.2886V7.14844C92.1206 5.74219 93.3745 4.94531 95.1558 4.94531C97.7925 4.94531 99.4917 6.70312 99.4917 9.83203V17.5781H96.0464V10.4648C96.0464 8.80078 95.2144 7.92188 93.7729 7.92188C92.3433 7.92188 91.3472 8.77734 91.3472 10.6992Z" fill="#8D8D8D"/>
<path d="M87.5841 5.20312V7.91016H85.0529V13.7578C85.0529 14.6016 85.3224 14.8711 86.2599 14.8711H87.5841V17.5781H85.5685C82.8497 17.5781 81.5958 16.5469 81.5958 14.2969V7.91016H79.463V5.20312H81.5958V1.82812H85.0529V5.20312H87.5841Z" fill="#8D8D8D"/>
<path d="M72.4655 17.5781V5.20312H75.7936V7.3125H75.8287C76.2858 5.82422 77.2233 5.12109 78.8522 5.12109C79.2506 5.12109 79.5905 5.13281 79.8717 5.14453V8.08594C79.6139 8.07422 78.9694 8.02734 78.3834 8.02734C76.9655 8.02734 75.9225 9.01172 75.9225 10.875V17.5781H72.4655Z" fill="#8D8D8D"/>
<path d="M64.4251 17.7891C61.9524 17.7891 60.1711 16.5586 60.1711 14.0859C60.1711 11.2969 62.4211 10.5 64.9993 10.2656C67.261 10.043 68.0579 9.9375 68.0579 9.14062V9.05859C68.0579 8.14453 67.2961 7.51172 66.0305 7.51172C64.7415 7.51172 63.8977 8.16797 63.8157 9.11719H60.5696C60.7219 6.5625 62.7376 4.94531 66.136 4.94531C69.5227 4.94531 71.468 6.53906 71.468 9.1875V17.5781H68.093V15.832H68.0461C67.3899 17.0391 66.3235 17.7891 64.4251 17.7891ZM65.386 15.3867C67.0501 15.3867 68.0813 14.3906 68.0813 13.0547V11.8125C67.6829 12.0352 66.7102 12.1992 65.5969 12.375C64.4133 12.5508 63.4758 13.0078 63.4758 13.9922C63.4758 14.8711 64.2258 15.3867 65.386 15.3867Z" fill="#8D8D8D"/>
<path d="M47.5369 17.5781V0.117188H54.4275C58.3533 0.117188 60.8142 2.33203 60.8142 5.84766C60.8142 9.36328 58.3064 11.5781 54.3806 11.5781H51.1462V17.5781H47.5369ZM51.1462 8.55469H54.1931C56.1033 8.55469 57.2869 7.51172 57.2869 5.84766C57.2869 4.18359 56.1033 3.14062 54.1931 3.14062H51.1462V8.55469Z" fill="#8D8D8D"/>
<path d="M41.0667 17.8594C37.3167 17.8594 34.8792 15.1641 34.8792 11.4023C34.8792 7.62891 37.3987 4.92188 40.9495 4.92188C44.594 4.92188 47.0432 7.55859 47.0432 11.332V12.2578H38.2424C38.301 14.0859 39.3557 15.2695 41.1721 15.2695C42.5198 15.2695 43.4456 14.6484 43.762 13.6875H46.9143C46.4573 16.1484 44.0667 17.8594 41.0667 17.8594ZM38.2659 10.0547H43.7854C43.6096 8.50781 42.5784 7.54688 41.0198 7.54688C39.4729 7.54688 38.4534 8.50781 38.2659 10.0547Z" fill="black"/>
<path d="M23.3817 17.5781L27.8114 11.2734L23.6864 5.20312H27.4598L28.5497 6.9375C28.9716 7.65234 29.3583 8.32031 29.745 8.98828C30.1317 8.32031 30.5184 7.65234 30.9637 6.9375L32.077 5.20312H35.7919L31.62 11.1914L35.9911 17.5781H32.2059L30.9637 15.6797C30.5184 14.9297 30.1083 14.25 29.7098 13.5586C29.288 14.25 28.8778 14.9297 28.4208 15.6797L27.1552 17.5781H23.3817Z" fill="black"/>
<path d="M16.1851 17.8359C13.5483 17.8359 11.8374 16.0781 11.8374 12.9492V5.20312H15.2944V12.3164C15.2944 13.9805 16.1265 14.8594 17.5679 14.8594C18.9976 14.8594 19.9937 14.0039 19.9937 12.082V5.20312H23.439V17.5781H20.0522V15.6328C19.2202 17.0391 17.9663 17.8359 16.1851 17.8359Z" fill="black"/>
<path d="M0 17.5781V0.117188H3.60938V14.4844H11.543V17.5781H0Z" fill="black"/>
</svg>
